<?xml version="1.0" encoding="UTF-8"?>
<!-- Generator: visioncortex VTracer 0.6.5 -->
<svg version="1.1" xmlns="http://www.w3.org/2000/svg" width="841" height="815">
<path d="M0 0 C2.81 1.25 2.81 1.25 5 3 C5.87 3.6 6.73 4.2 7.62 4.81 C12.76 9.55 13.56 15.22 14.44 21.81 C15.42 28.45 16.82 34.03 20 40 C20.33 40.99 20.66 41.98 21 43 C22.31 43.72 23.65 44.38 25 45 C27.52 46.77 29.99 48.6 32.46 50.44 C35.24 52.15 36.74 52.93 40 53 C42.67 51.9 45.05 50.75 47.56 49.38 C49.01 48.62 50.46 47.88 51.91 47.13 C52.62 46.76 53.32 46.39 54.05 46.02 C66.07 39.76 78.75 37.38 92 35 C93.03 34.81 94.05 34.62 95.11 34.42 C103.52 32.98 111.79 32.6 120.31 32.62 C120.66 32.62 120.66 32.62 122.41 32.62 C135.56 32.66 148.15 34.14 161 37 C161.75 37.16 162.49 37.32 163.26 37.49 C173.5 39.74 182.64 43.59 191.86 48.53 C192.73 49 193.6 49.46 194.5 49.94 C195.25 50.36 196.01 50.78 196.78 51.21 C199.72 52.25 201.04 51.98 204 51 C206.43 49.71 208.69 48.41 211 46.94 C211.3 46.76 211.3 46.76 212.83 45.85 C219.5 41.63 222.65 36.19 224.48 28.58 C224.87 26.66 225.26 24.74 225.62 22.81 C227.52 13.17 229.59 6.71 238 1 C242.96 -0.65 248.95 -0.32 254 1 C258.55 3.95 261.44 7.91 264.56 12.25 C265.03 12.88 265.5 13.51 265.98 14.16 C270.12 19.85 273.49 25.86 275.69 32.56 C275.92 33.24 276.15 33.93 276.39 34.63 C281.41 54.05 277.52 75.2 269 93 C269.6 92.97 270.19 92.93 270.81 92.89 C288.57 92.34 304.44 97.75 320 106 C320 106.66 320 107.32 320 108 C320.73 108.26 321.46 108.52 322.21 108.78 C330.98 112.61 338.79 120.89 345 128 C345 128.66 345 129.32 345 130 C345.66 130 346.32 130 347 130 C352.37 136.47 355.52 142.84 354.75 151.38 C354.39 154.11 353.88 156.37 353 159 C352.34 159 351.68 159 351 159 C350.74 159.58 350.48 160.17 350.22 160.77 C348.9 163.18 347.45 164.82 345.5 166.75 C344.89 167.36 344.28 167.98 343.66 168.61 C342 170 342 170 340 170 C340 170.66 340 171.32 340 172 C322.12 181.65 304.08 184.25 284 182 C284.76 185.9 285.53 189.79 286.31 193.69 C286.53 194.79 286.74 195.89 286.96 197.03 C287.07 197.56 287.07 197.56 287.61 200.26 C287.71 200.75 287.71 200.75 288.2 203.23 C289.06 206.21 290.35 208.39 292 211 C292.33 211.99 292.66 212.98 293 214 C293.66 214 294.32 214 295 214 C295 214.66 295 215.32 295 216 C295.66 216 296.32 216 297 216 C297 216.66 297 217.32 297 218 C297.31 218.12 297.31 218.12 298.88 218.75 C301.35 220.21 301.95 221.38 303 224 C303.66 224 304.32 224 305 224 C305 224.66 305 225.32 305 226 C305.66 226 306.32 226 307 226 C308.44 227.61 308.44 227.61 310 229.75 C310.52 230.45 311.03 231.14 311.56 231.86 C312.9 233.85 313.98 235.83 315 238 C315.66 238 316.32 238 317 238 C318.35 239.99 319.69 241.99 321 244 C321.66 244.33 322.32 244.66 323 245 C324.75 247.66 325.99 249.97 327 253 C327.99 253.33 328.98 253.66 330 254 C331.28 255.42 331.28 255.42 332.5 257.19 C332.9 257.76 333.3 258.33 333.72 258.92 C335.33 261.53 336.63 264.25 338 267 C339.24 269.27 340.51 271.52 341.77 273.78 C349.04 286.79 355.78 300.02 361 314 C361.19 314.46 361.19 314.46 362.14 316.8 C365.22 324.78 367.3 332.87 369.25 341.19 C369.38 341.73 369.38 341.73 370.03 344.5 C371.42 350.62 372.34 356.47 372.53 362.75 C373.13 365.64 374.17 366.41 376.56 368.06 C378.36 369.06 380.18 370.04 382 371 C384.75 372.61 387.47 374.27 390.19 375.94 C390.86 376.33 391.54 376.73 392.24 377.14 C396.59 379.77 399.62 382.55 402.69 386.62 C404 388 404 388 406.81 388.31 C416.67 384.25 421.66 378.59 425.93 368.89 C426.98 366.19 427.87 363.48 428.63 360.68 C430.29 354.92 431.92 352.29 437 349 C442.08 346.52 446.62 346.64 452 348 C459.61 350.89 463.49 356.93 467 364 C474.89 384.04 475.02 405.46 467.18 425.53 C465.21 429.66 462.69 433.32 460 437 C459.34 437.99 458.68 438.98 458 440 C458.36 440.14 458.36 440.14 460.17 440.85 C486.44 451.42 506.81 466.79 520.44 491.88 C520.77 492.48 521.1 493.09 521.44 493.71 C525.28 501.04 527.31 507.91 525 516 C520.95 523.38 513.63 527.09 506 530 C504.01 530.39 502.01 530.74 500 531 C499.89 531.98 499.78 532.96 499.66 533.97 C499.04 538.29 497.82 542.31 496.44 546.44 C496.18 547.22 495.92 548 495.65 548.81 C493.29 555.64 490.21 561.95 486.86 568.35 C485.26 571.44 483.9 574.57 482.62 577.81 C473.27 600.97 458.98 622.02 444.66 642.32 C444.07 643.16 443.48 643.99 442.88 644.85 C442.35 645.6 441.82 646.35 441.27 647.13 C440 649 440 649 439 651 C438.34 651 437.68 651 437 651 C436.74 651.55 436.48 652.1 436.22 652.67 C434.82 655.34 433.21 657.77 431.5 660.25 C430.89 661.14 430.28 662.03 429.66 662.95 C429.11 663.63 428.56 664.3 428 665 C427.34 665 426.68 665 426 665 C425.78 665.53 425.56 666.06 425.33 666.6 C423.52 669.86 421.18 672.57 418.75 675.38 C418.2 676 417.66 676.63 417.09 677.28 C411.4 683.73 405.38 689.84 399.31 695.94 C398.82 696.44 398.32 696.94 397.81 697.45 C396.4 698.88 394.97 700.3 393.55 701.71 C392.72 702.54 391.89 703.37 391.04 704.22 C389 706 389 706 387 706 C387 706.66 387 707.32 387 708 C385.32 709.5 383.58 710.92 381.81 712.31 C378.94 714.58 376.22 716.76 373.7 719.42 C370.79 722.2 367.76 724.25 364.4 726.43 C360.48 728.99 356.72 731.75 352.94 734.5 C352.56 734.77 352.56 734.77 350.66 736.14 C347.08 738.74 343.51 741.36 339.99 744.05 C326.94 753.86 312.55 761.66 298 769 C297.1 769.46 296.2 769.92 295.27 770.39 C289.68 773.22 284.07 776.02 278.45 778.79 C276.35 779.83 274.25 780.88 272.15 781.93 C248.52 793.47 222.76 800.53 197.28 806.67 C195.89 807 194.5 807.34 193.12 807.68 C188.1 808.91 183.07 810 178 811 C177.09 811.18 176.18 811.36 175.25 811.55 C157.18 815 139.36 815.69 121.04 815.58 C118.78 815.56 116.52 815.56 114.26 815.55 C77.57 815.43 41.48 812.91 6 803 C5 802.73 4.01 802.46 2.98 802.18 C-7.2 799.42 -17.29 796.35 -27.35 793.15 C-31.83 791.74 -36.33 790.41 -40.84 789.09 C-45.02 787.65 -48.98 785.83 -53 784 C-54.78 783.21 -56.57 782.42 -58.36 781.62 C-72.28 775.38 -85.72 768.53 -99 761 C-99.67 760.62 -100.34 760.25 -101.03 759.86 C-106.36 756.86 -111.23 753.83 -116 750 C-116.44 749.78 -116.44 749.78 -118.69 748.69 C-127.04 744.43 -134.33 738.27 -141.71 732.53 C-144.75 730.18 -147.84 727.9 -150.94 725.62 C-171.19 710.44 -190.73 692.39 -207 673 C-207.83 672.04 -208.66 671.07 -209.51 670.08 C-217.97 660.23 -225.99 650.09 -233.36 639.38 C-234.46 637.78 -235.57 636.2 -236.7 634.62 C-243.03 625.75 -248.64 616.47 -254 607 C-254.96 605.42 -255.91 603.83 -256.88 602.25 C-263.75 590.82 -270.04 579.06 -274.94 566.65 C-276.31 563.23 -277.78 559.85 -279.25 556.47 C-281.19 551.99 -283.1 547.5 -285 543 C-285.33 542.22 -285.66 541.44 -286 540.64 C-286.87 538.54 -287.72 536.43 -288.56 534.31 C-289.04 533.13 -289.51 531.95 -290 530.74 C-292.8 520.24 -289.99 513.67 -284.81 504.38 C-284.23 503.29 -283.66 502.21 -283.06 501.1 C-280.23 495.85 -277.29 490.69 -274.04 485.69 C-272.94 483.9 -272.02 482.08 -271.12 480.19 C-267.02 471.8 -261.48 464.16 -256.25 456.44 C-256.01 456.09 -256.01 456.09 -254.82 454.31 C-254.37 453.65 -253.92 452.99 -253.45 452.31 C-253.05 451.72 -252.65 451.13 -252.24 450.52 C-251 449 -251 449 -248 447 C-247.34 444.08 -247.34 444.08 -246.94 440.25 C-246.86 439.56 -246.79 438.88 -246.71 438.17 C-246.45 435.78 -246.22 433.39 -246 431 C-245.91 430.04 -245.82 429.08 -245.72 428.09 C-245.12 421.73 -244.55 415.37 -244 409 C-244.82 409 -245.64 409 -246.48 409 C-276.83 408.91 -276.83 408.91 -291 402 C-292.05 401.51 -293.1 401.02 -294.18 400.52 C-302.21 396.47 -309.77 391.13 -314 383 C-315.63 377.15 -314.69 373.24 -312 368 C-310.14 364.89 -308.12 361.94 -306 359 C-305.49 358.28 -304.98 357.57 -304.45 356.83 C-301.57 352.87 -298.56 349.38 -295 346 C-294.5 345.47 -294 344.94 -293.48 344.39 C-285.31 335.78 -275.86 330.58 -265 326 C-263.92 325.53 -262.85 325.07 -261.74 324.59 C-254.24 321.49 -247.05 319.88 -239 319 C-239.17 318.37 -239.17 318.37 -240.06 315.19 C-244.31 299.4 -246.22 285.27 -243 269 C-242.82 267.98 -242.63 266.97 -242.44 265.92 C-240.13 254.95 -234.71 243.36 -226 236 C-220.7 232.72 -215.22 231 -209 231 C-203.59 232.68 -200.07 235.2 -197 240 C-195.27 244.94 -194.04 250.03 -192.73 255.1 C-191.01 261.45 -189.09 265.85 -185 271 C-185 271.66 -185 272.32 -185 273 C-181.41 275.01 -178.07 276.33 -174 277 C-171.8 276.37 -169.91 275.42 -167.86 274.4 C-147.5 264.41 -125.59 259.88 -103.13 257.94 C-102.57 257.89 -102.57 257.89 -99.73 257.64 C-99.24 257.6 -99.24 257.6 -96.74 257.41 C-92.52 256.78 -89.79 255.99 -87.09 252.62 C-86.52 251.71 -85.96 250.81 -85.38 249.88 C-83.65 247.12 -83.65 247.12 -82 245 C-81.01 245 -80.02 245 -79 245 C-78.67 244.01 -78.34 243.02 -78 242 C-77.34 242 -76.68 242 -76 242 C-75.89 241.73 -75.89 241.73 -75.31 240.38 C-73.54 237.18 -71.46 234.71 -69 232 C-68.34 232 -67.68 232 -67 232 C-66.69 231.22 -66.38 230.43 -66.06 229.62 C-65 227 -65 227 -64 225 C-63.34 225 -62.68 225 -62 225 C-61.77 224.44 -61.55 223.89 -61.31 223.31 C-59.62 220.34 -57.53 218.28 -55 216 C-54.34 216 -53.68 216 -53 216 C-52.73 215.28 -52.46 214.56 -52.19 213.81 C-51 211 -51 211 -49.53 209.03 C-47.22 204.45 -46.9 199.74 -46.31 194.69 C-46.18 193.66 -46.05 192.63 -45.92 191.58 C-45.6 189.05 -45.3 186.53 -45 184 C-45.58 183.98 -46.17 183.96 -46.77 183.94 C-49.47 183.84 -52.17 183.73 -54.88 183.62 C-55.79 183.59 -56.71 183.56 -57.66 183.53 C-67.29 183.12 -75.96 181.27 -85 177.94 C-85.75 177.67 -86.5 177.4 -87.27 177.12 C-92.62 175.19 -92.62 175.19 -95 174 C-95 173.34 -95 172.68 -95 172 C-95.57 171.9 -96.13 171.81 -96.71 171.71 C-99.51 170.84 -101.27 169.5 -103.56 167.69 C-104.33 167.09 -105.09 166.5 -105.88 165.89 C-107.94 164.05 -109.51 162.32 -111 160 C-111 159.34 -111 158.68 -111 158 C-111.66 158 -112.32 158 -113 158 C-115.61 149.52 -114.64 143.05 -111 135 C-110.34 135 -109.68 135 -109 135 C-108.67 133.68 -108.34 132.36 -108 131 C-107.34 131 -106.68 131 -106 131 C-105.77 130.42 -105.55 129.84 -105.31 129.25 C-103.65 126.4 -101.61 125 -99 123 C-98.62 122.61 -98.62 122.61 -96.69 120.62 C-93.36 117.37 -89.77 114.72 -86 112 C-85.63 111.72 -85.63 111.72 -83.75 110.31 C-66.93 97.96 -49.45 93.66 -29 92 C-29.24 91.44 -29.24 91.44 -30.43 88.62 C-38.35 69.41 -42.12 50.34 -35 30 C-31.56 22.6 -27.13 15.34 -22 9 C-21.34 9 -20.68 9 -20 9 C-19.74 8.4 -19.48 7.79 -19.22 7.17 C-15.27 0.13 -7.4 -1.18 0 0 Z " fill="#A0D1A1" transform="translate(315,0)"/>
<path d="M0 0 C0.7 0.52 1.41 1.04 2.13 1.57 C2.13 2.23 2.13 2.89 2.13 3.57 C3.12 3.9 4.11 4.23 5.13 4.57 C6.81 7.09 6.81 7.09 8.57 10.26 C10.39 13.51 12.15 16.6 14.32 19.64 C23.73 34.9 22.09 53.65 19.13 70.57 C23.86 73.23 27.7 73.78 33.13 74.01 C55.16 75.12 78.74 85.65 94.13 101.57 C94.73 102.18 95.34 102.79 95.96 103.41 C100.6 108.39 102.55 113.38 103.75 120.01 C102.09 129.48 92.52 136.42 85.27 142.01 C75.89 148.44 64.07 151.11 53.13 153.57 C53.47 167.43 59.64 179.7 68.34 190.26 C70.13 192.57 70.13 192.57 70.13 194.57 C70.79 194.57 71.45 194.57 72.13 194.57 C72.46 195.48 72.79 196.39 73.13 197.32 C74.66 200.96 76.74 203.98 79 207.2 C82.7 212.58 85.03 217.89 87.12 224.05 C88.13 226.57 88.13 226.57 90.13 227.57 C97.82 253.59 95.69 283.2 82.86 307.16 C81.02 310.6 79.45 313.65 79.13 317.57 C80.39 321.04 81.84 324.11 83.78 327.24 C85.56 331.64 85.11 334.83 84.44 339.45 C84.4 339.83 84.4 339.83 84.16 341.77 C83.69 345.43 83.07 348.96 82.09 352.52 C76.17 375.13 81.57 400.62 92.89 420.61 C93.32 421.33 93.74 422.04 94.18 422.78 C95.13 424.57 95.13 424.57 95.13 426.57 C95.79 426.57 96.45 426.57 97.13 426.57 C98.31 428.11 99.42 429.71 100.5 431.32 C104.2 436.58 108.3 440.97 113 445.34 C116.32 448.48 118.6 451.25 120.13 455.57 C120.07 458.22 119.86 460.49 119.44 463.07 C118.35 471.06 117.66 479.04 117.13 487.08 C117.01 489.03 116.87 490.99 116.74 492.94 C114.75 523.45 116.58 565.26 134.13 591.57 C88.48 596.1 40.35 592.92 -3.87 580.57 C-4.87 580.3 -5.86 580.03 -6.89 579.76 C-17.07 576.99 -27.16 573.93 -37.22 570.73 C-41.7 569.31 -46.2 567.98 -50.71 566.66 C-54.89 565.22 -58.85 563.4 -62.87 561.57 C-64.66 560.78 -66.44 559.99 -68.23 559.2 C-82.16 552.96 -95.59 546.1 -108.87 538.57 C-109.54 538.2 -110.21 537.82 -110.9 537.43 C-116.23 534.43 -121.1 531.4 -125.87 527.57 C-126.31 527.36 -126.31 527.36 -128.56 526.26 C-136.91 522 -144.2 515.84 -151.59 510.11 C-154.62 507.75 -157.71 505.47 -160.81 503.2 C-181.06 488.02 -200.6 469.97 -216.87 450.57 C-217.7 449.61 -218.53 448.65 -219.38 447.66 C-227.85 437.8 -235.86 427.66 -243.23 416.96 C-244.33 415.36 -245.45 413.77 -246.57 412.19 C-252.9 403.33 -258.51 394.05 -263.87 384.57 C-264.83 382.99 -265.79 381.41 -266.75 379.82 C-273.62 368.4 -279.91 356.63 -284.81 344.22 C-286.18 340.8 -287.65 337.42 -289.12 334.04 C-291.07 329.56 -292.97 325.07 -294.87 320.57 C-295.04 320.18 -295.04 320.18 -295.87 318.21 C-296.75 316.11 -297.59 314 -298.43 311.89 C-298.91 310.71 -299.38 309.53 -299.88 308.31 C-302.67 297.81 -299.86 291.25 -294.68 281.95 C-294.11 280.87 -293.53 279.79 -292.93 278.68 C-290.1 273.42 -287.16 268.27 -283.91 263.26 C-282.81 261.48 -281.89 259.65 -281 257.76 C-276.89 249.37 -271.35 241.73 -266.12 234.01 C-265.89 233.66 -265.89 233.66 -264.69 231.88 C-264.24 231.22 -263.79 230.56 -263.32 229.88 C-262.92 229.29 -262.52 228.7 -262.11 228.1 C-260.87 226.57 -260.87 226.57 -257.87 224.57 C-257.21 221.65 -257.21 221.65 -256.81 217.82 C-256.73 217.14 -256.66 216.45 -256.58 215.75 C-256.33 213.36 -256.1 210.97 -255.87 208.57 C-255.78 207.61 -255.69 206.65 -255.59 205.67 C-254.99 199.3 -254.42 192.94 -253.87 186.57 C-254.69 186.58 -255.51 186.58 -256.36 186.58 C-286.71 186.48 -286.71 186.48 -300.87 179.57 C-301.4 179.33 -301.4 179.33 -304.05 178.09 C-312.08 174.04 -319.64 168.7 -323.87 160.57 C-325.5 154.72 -324.56 150.82 -321.87 145.57 C-320.02 142.46 -317.99 139.51 -315.87 136.57 C-315.36 135.86 -314.85 135.14 -314.32 134.4 C-311.44 130.45 -308.43 126.96 -304.87 123.57 C-304.37 123.04 -303.87 122.51 -303.36 121.96 C-295.19 113.35 -285.73 108.15 -274.87 103.57 C-274.33 103.34 -274.33 103.34 -271.61 102.16 C-264.11 99.07 -256.92 97.46 -248.87 96.57 C-249.22 95.32 -249.57 94.06 -249.93 92.76 C-254.18 76.98 -256.09 62.85 -252.87 46.57 C-252.69 45.56 -252.5 44.54 -252.31 43.49 C-250 32.52 -244.59 20.93 -235.87 13.57 C-230.57 10.3 -225.09 8.57 -218.87 8.57 C-213.46 10.25 -209.94 12.78 -206.87 17.57 C-205.14 22.52 -203.91 27.6 -202.6 32.67 C-200.88 39.02 -198.96 43.43 -194.87 48.57 C-194.87 49.23 -194.87 49.89 -194.87 50.57 C-191.29 52.58 -187.94 53.91 -183.87 54.57 C-181.67 53.95 -179.78 53 -177.73 51.98 C-153.78 40.21 -127.54 35.53 -101.06 35.32 C-100.03 35.31 -98.99 35.31 -97.93 35.3 C-96.95 35.3 -95.98 35.3 -94.98 35.31 C-94.54 35.31 -94.54 35.31 -92.36 35.32 C-89.55 35.61 -87.47 36.49 -84.87 37.57 C-80.79 38.6 -76.67 39.44 -72.54 40.29 C-70.57 40.7 -68.61 41.12 -66.64 41.54 C-49.43 45.11 -49.43 45.11 -40.87 40.57 C-40.54 39.91 -40.21 39.25 -39.87 38.57 C-39.21 38.57 -38.55 38.57 -37.87 38.57 C-37.62 37.91 -37.38 37.25 -37.12 36.57 C-35.87 33.57 -35.87 33.57 -34.06 30.32 C-31.52 25.38 -30.16 20.08 -28.71 14.74 C-25.46 2.97 -25.46 2.97 -20.87 -0.43 C-14.63 -3.63 -6.2 -3.08 0 0 Z " fill="#90B8D7" transform="translate(324.87109375,222.42578125)"/>
<path d="M0 0 C2.81 1.25 2.81 1.25 5 3 C5.87 3.6 6.73 4.2 7.62 4.81 C12.76 9.55 13.56 15.22 14.44 21.81 C15.42 28.45 16.82 34.03 20 40 C20.33 40.99 20.66 41.98 21 43 C22.31 43.72 23.65 44.38 25 45 C27.52 46.77 29.99 48.6 32.46 50.44 C35.24 52.15 36.74 52.93 40 53 C42.67 51.9 45.05 50.75 47.56 49.38 C49.01 48.62 50.46 47.88 51.91 47.13 C52.62 46.76 53.32 46.39 54.05 46.02 C66.07 39.76 78.75 37.38 92 35 C93.03 34.81 94.05 34.62 95.11 34.42 C103.52 32.98 111.79 32.6 120.31 32.62 C120.66 32.62 120.66 32.62 122.41 32.62 C135.56 32.66 148.15 34.14 161 37 C161.75 37.16 162.49 37.32 163.26 37.49 C173.5 39.74 182.64 43.59 191.86 48.53 C192.73 49 193.6 49.46 194.5 49.94 C195.25 50.36 196.01 50.78 196.78 51.21 C199.72 52.25 201.04 51.98 204 51 C206.43 49.71 208.69 48.41 211 46.94 C211.3 46.76 211.3 46.76 212.83 45.85 C219.5 41.63 222.65 36.19 224.48 28.58 C224.87 26.66 225.26 24.74 225.62 22.81 C227.52 13.17 229.59 6.71 238 1 C242.96 -0.65 248.95 -0.32 254 1 C258.55 3.95 261.44 7.91 264.56 12.25 C265.03 12.88 265.5 13.51 265.98 14.16 C270.12 19.85 273.49 25.86 275.69 32.56 C275.92 33.24 276.15 33.93 276.39 34.63 C281.41 54.05 277.52 75.2 269 93 C269.6 92.97 270.19 92.93 270.81 92.89 C288.57 92.34 304.44 97.75 320 106 C320 106.66 320 107.32 320 108 C320.36 108.13 320.36 108.13 322.21 108.78 C330.98 112.61 338.79 120.89 345 128 C345 128.66 345 129.32 345 130 C345.66 130 346.32 130 347 130 C352.37 136.47 355.52 142.84 354.75 151.38 C354.39 154.11 353.88 156.37 353 159 C352.34 159 351.68 159 351 159 C350.74 159.58 350.48 160.17 350.22 160.77 C348.9 163.18 347.45 164.82 345.5 166.75 C344.89 167.36 344.28 167.98 343.66 168.61 C342 170 342 170 340 170 C340 170.66 340 171.32 340 172 C322.12 181.65 304.08 184.25 284 182 C284.76 185.9 285.53 189.79 286.31 193.69 C286.53 194.79 286.74 195.89 286.96 197.03 C287.17 198.1 287.39 199.16 287.61 200.26 C287.81 201.24 288 202.22 288.2 203.23 C289.06 206.21 290.35 208.39 292 211 C292.33 211.99 292.66 212.98 293 214 C293.66 214 294.32 214 295 214 C295 214.66 295 215.32 295 216 C295.66 216 296.32 216 297 216 C297 216.66 297 217.32 297 218 C297.62 218.25 298.24 218.5 298.88 218.75 C301.35 220.21 301.95 221.38 303 224 C303.66 224 304.32 224 305 224 C305 224.66 305 225.32 305 226 C305.66 226 306.32 226 307 226 C308.44 227.61 308.44 227.61 310 229.75 C310.52 230.45 311.03 231.14 311.56 231.86 C312.9 233.85 313.98 235.83 315 238 C315.66 238 316.32 238 317 238 C318.35 239.99 319.69 241.99 321 244 C321.66 244.33 322.32 244.66 323 245 C324.75 247.66 325.99 249.97 327 253 C327.99 253.33 328.98 253.66 330 254 C331.28 255.42 331.28 255.42 332.5 257.19 C332.9 257.76 333.3 258.33 333.72 258.92 C335.33 261.53 336.63 264.25 338 267 C339.24 269.27 340.51 271.52 341.77 273.78 C349.04 286.79 355.78 300.02 361 314 C361.19 314.46 361.19 314.46 362.14 316.8 C365.23 324.8 367.31 332.91 369.25 341.25 C369.51 342.35 369.77 343.45 370.03 344.59 C371.49 351.05 372.54 357.39 373 364 C367.55 362.28 362.29 360.15 357 358 C357 357.34 357 356.68 357 356 C356.66 355.9 356.66 355.9 354.95 355.41 C354.51 355.28 354.51 355.28 352.25 354.62 C351.37 354.37 350.49 354.11 349.58 353.85 C347.24 353.08 345.17 352.16 343 351 C343 350.34 343 349.68 343 349 C342.11 348.9 341.23 348.79 340.31 348.69 C336.66 348.18 333.14 347.32 329.56 346.44 C324.5 345.23 320.18 344.81 315 345 C312.94 344.56 312.94 344.56 311 344 C303.75 342.82 296.58 342.72 289.25 342.69 C288.56 342.68 287.87 342.68 287.17 342.68 C273.39 342.66 261.08 344.63 248 349 C244.69 349.62 244.69 349.62 241 350 C240.3 350.09 239.59 350.18 238.87 350.27 C233.14 350.7 229.68 349.24 225.08 345.86 C221.82 342.95 219.37 339.65 217 336 C216.34 335.01 215.68 334.02 215 333 C214.5 331.04 214.5 331.04 214.15 328.83 C214.02 328.02 213.89 327.21 213.76 326.37 C213.69 325.95 213.69 325.95 213.38 323.81 C213.24 322.99 213.11 322.16 212.97 321.31 C212.17 316.14 211.87 311.23 212 306 C211.34 306 210.68 306 210 306 C207.38 303.62 207.38 303.62 205 301 C205 300.34 205 299.68 205 299 C200.65 298.16 196.56 297.89 192.12 297.94 C191.55 297.94 191.55 297.94 188.63 297.96 C187.76 297.98 186.9 297.99 186 298 C185.67 298.99 185.34 299.98 185 301 C184.3 301.41 183.6 301.82 182.88 302.25 C170.63 309.7 163.79 322.51 160.46 336.01 C157.7 348.04 156.68 360.81 159 373 C159.66 373 160.32 373 161 373 C161.33 374.98 161.66 376.96 162 379 C159.05 380.47 155.99 380.24 152.75 380.38 C135.69 381.29 120.15 386.14 105.5 394.88 C102.52 396.65 100.01 398 96.66 399.02 C94 400 94 400 92.94 401.7 C92.63 402.46 92.32 403.22 92 404 C90.37 406.29 88.71 408.52 87 410.75 C86.55 411.35 86.1 411.95 85.63 412.57 C84.47 414.09 83.24 415.55 82 417 C81.34 417 80.68 417 80 417 C70.79 406.12 61.21 390.78 62 376 C65.95 374.29 69.88 373.25 74.06 372.25 C89.37 368.33 101.17 360.32 111 348 C112.8 344.41 112.45 340.81 111.49 336.96 C107.28 325.7 97.41 317.33 87 312 C85.82 311.34 84.64 310.68 83.46 310.01 C75.87 305.75 68.43 302.32 60 300 C59.27 299.79 58.54 299.57 57.79 299.36 C53.01 298.12 48.36 297.82 43.44 297.56 C37.65 297.25 33.24 296.46 28 294 C28.14 293.1 28.29 292.21 28.44 291.28 C30.91 274.66 31.6 258.49 24 243 C22.7 241.31 21.36 239.64 20 238 C18.4 235.14 16.87 232.24 15.37 229.33 C14 227 14 227 12 226 C12 225.34 12 224.68 12 224 C11.74 223.94 11.74 223.94 10.44 223.62 C8 223 8 223 4.81 221.88 C-0.77 220.59 -5.46 221.04 -10.81 223.06 C-16.17 227.81 -17.75 235.15 -19.38 241.88 C-21.17 248.83 -23.23 255.43 -28 261 C-28.66 261 -29.32 261 -30 261 C-30.33 261.99 -30.66 262.98 -31 264 C-40.19 269.06 -48.87 266.66 -58.72 264.55 C-60.69 264.12 -62.67 263.72 -64.64 263.31 C-69.98 262.19 -74.94 261.04 -80 259 C-82.43 258.72 -84.87 258.51 -87.31 258.38 C-88.57 258.3 -89.82 258.23 -91.11 258.15 C-92.07 258.1 -93.02 258.05 -94 258 C-93.71 257.89 -93.71 257.89 -92.25 257.35 C-88.36 255.02 -86.39 251.05 -83.9 247.34 C-83.27 246.57 -82.65 245.79 -82 245 C-81.01 245 -80.02 245 -79 245 C-78.67 244.01 -78.34 243.02 -78 242 C-77.34 242 -76.68 242 -76 242 C-75.89 241.73 -75.89 241.73 -75.31 240.38 C-73.54 237.18 -71.46 234.71 -69 232 C-68.34 232 -67.68 232 -67 232 C-66.69 231.22 -66.38 230.43 -66.06 229.62 C-65 227 -65 227 -64 225 C-63.34 225 -62.68 225 -62 225 C-61.77 224.44 -61.55 223.89 -61.31 223.31 C-59.62 220.34 -57.53 218.28 -55 216 C-54.34 216 -53.68 216 -53 216 C-52.73 215.28 -52.46 214.56 -52.19 213.81 C-51 211 -51 211 -49.53 209.03 C-47.22 204.45 -46.9 199.74 -46.31 194.69 C-46.25 194.17 -46.25 194.17 -45.92 191.58 C-45.6 189.05 -45.3 186.53 -45 184 C-45.58 183.98 -46.17 183.96 -46.77 183.94 C-49.47 183.84 -52.17 183.73 -54.88 183.62 C-55.79 183.59 -56.71 183.56 -57.66 183.53 C-67.29 183.12 -75.96 181.27 -85 177.94 C-85.75 177.67 -86.5 177.4 -87.27 177.12 C-92.62 175.19 -92.62 175.19 -95 174 C-95 173.34 -95 172.68 -95 172 C-95.28 171.95 -95.28 171.95 -96.71 171.71 C-99.51 170.84 -101.27 169.5 -103.56 167.69 C-104.33 167.09 -105.09 166.5 -105.88 165.89 C-107.94 164.05 -109.51 162.32 -111 160 C-111 159.34 -111 158.68 -111 158 C-111.66 158 -112.32 158 -113 158 C-115.61 149.52 -114.64 143.05 -111 135 C-110.34 135 -109.68 135 -109 135 C-108.84 134.34 -108.84 134.34 -108 131 C-107.34 131 -106.68 131 -106 131 C-105.77 130.42 -105.55 129.84 -105.31 129.25 C-103.65 126.4 -101.61 125 -99 123 C-98.62 122.61 -98.62 122.61 -96.69 120.62 C-93.36 117.37 -89.77 114.72 -86 112 C-85.63 111.72 -85.63 111.72 -83.75 110.31 C-66.93 97.96 -49.45 93.66 -29 92 C-29.47 90.89 -29.94 89.77 -30.43 88.62 C-38.35 69.41 -42.12 50.34 -35 30 C-31.56 22.6 -27.13 15.34 -22 9 C-21.34 9 -20.68 9 -20 9 C-19.74 8.4 -19.48 7.79 -19.22 7.17 C-15.27 0.13 -7.4 -1.18 0 0 Z " fill="#C5E4BE" transform="translate(315,0)"/>
<path d="M0 0 C0.66 0 1.32 0 2 0 C2.66 0.74 3.32 1.49 4 2.25 C12.25 10.57 26.03 10.59 37 12 C36.34 14.97 35.68 17.94 35 21 C34.34 21 33.68 21 33 21 C32.93 21.55 32.85 22.1 32.77 22.66 C30.56 36.02 24.13 48.16 17.98 60.08 C16.3 63.37 14.65 66.69 13 70 C12.34 70 11.68 70 11 70 C10.88 71.11 10.75 72.23 10.62 73.38 C10 77 10 77 8 79 C7.38 81.12 7.38 81.12 7 83 C6.34 83 5.68 83 5 83 C4.9 83.72 4.79 84.44 4.69 85.19 C3.93 88.29 2.65 90.27 1 93 C0.08 94.93 -0.82 96.86 -1.69 98.81 C-2.12 99.79 -2.56 100.76 -3.01 101.77 C-3.34 102.51 -3.66 103.24 -4 104 C-5.59 101.61 -7.11 99.23 -8.56 96.75 C-9 96.02 -9.43 95.3 -9.88 94.55 C-11.55 90.76 -12.72 87.2 -11.39 83.12 C-10.44 81.11 -9.41 79.18 -8.31 77.25 C-7.56 75.84 -6.82 74.42 -6.07 73 C-5.89 72.66 -5.89 72.66 -4.98 70.93 C4.66 52.02 5.66 26.11 0.66 5.83 C0 3 0 3 0 0 Z " fill="#C5E4BE" transform="translate(415,452)"/>
</svg>
